<svg width="32" height="32" viewBox="0 0 32 32" fill="none" xmlns="http://www.w3.org/2000/svg">
<circle cx="16" cy="16" r="16" fill="#581A57"/>
<path d="M17.7604 8.7C16.7791 8.7 15.838 9.08982 15.1441 9.7837C14.4502 10.4776 14.0604 11.4187 14.0604 12.4V14.46H12.0804C11.9812 14.46 11.9004 14.54 11.9004 14.64V17.36C11.9004 17.4592 11.9804 17.54 12.0804 17.54H14.0604V23.12C14.0604 23.2192 14.1404 23.3 14.2404 23.3H16.9604C17.0596 23.3 17.1404 23.22 17.1404 23.12V17.54H19.138C19.2204 17.54 19.2924 17.484 19.3124 17.404L19.9924 14.684C19.9991 14.6575 19.9996 14.6297 19.994 14.603C19.9884 14.5762 19.9767 14.551 19.9599 14.5294C19.9431 14.5078 19.9215 14.4903 19.897 14.4783C19.8724 14.4663 19.8454 14.46 19.818 14.46H17.1404V12.4C17.1404 12.3186 17.1564 12.238 17.1876 12.1627C17.2187 12.0875 17.2644 12.0192 17.322 11.9616C17.3796 11.904 17.4479 11.8583 17.5231 11.8272C17.5983 11.796 17.679 11.78 17.7604 11.78H19.8404C19.9396 11.78 20.0204 11.7 20.0204 11.6V8.88C20.0204 8.7808 19.9404 8.7 19.8404 8.7H17.7604Z" fill="#E6DDE6"/>
</svg>
