<svg width="25" height="24" viewBox="0 0 25 24" fill="none" xmlns="http://www.w3.org/2000/svg">
<g clip-path="url(#clip0_175_30)">
<path d="M8.86104 0.789371C6.46307 1.62125 4.39506 3.20018 2.96077 5.29425C1.52649 7.38832 0.801526 9.88714 0.892371 12.4237C0.983217 14.9602 1.88508 17.4008 3.4655 19.3869C5.04591 21.373 7.22158 22.7999 9.67292 23.4581C11.6603 23.9709 13.7424 23.9934 15.7404 23.5237C17.5504 23.1172 19.2238 22.2476 20.5967 21C22.0256 19.6619 23.0627 17.9596 23.5967 16.0762C24.1768 14.0281 24.2801 11.8743 23.8985 9.78H12.7385V14.4094H19.2017C19.0725 15.1477 18.7957 15.8524 18.3878 16.4813C17.98 17.1102 17.4494 17.6503 16.8279 18.0694C16.0388 18.5916 15.1491 18.9429 14.216 19.1006C13.2803 19.2747 12.3205 19.2747 11.3848 19.1006C10.4363 18.9047 9.53912 18.5133 8.75042 17.9512C7.4832 17.0542 6.53168 15.7799 6.03167 14.31C5.52333 12.8126 5.52333 11.1893 6.03167 9.69187C6.38759 8.64228 6.97598 7.68663 7.75292 6.89625C8.64203 5.97515 9.76766 5.31674 11.0063 4.99326C12.245 4.66979 13.5488 4.69374 14.7748 5.0625C15.7325 5.35635 16.6083 5.87002 17.3323 6.5625C18.061 5.8375 18.7885 5.11062 19.5148 4.38187C19.8898 3.99 20.2985 3.61687 20.6679 3.21562C19.5627 2.18722 18.2654 1.38694 16.8504 0.860621C14.2736 -0.0750226 11.4541 -0.100167 8.86104 0.789371Z" fill="white"/>
<path d="M8.8607 0.789375C11.4536 -0.100768 14.2731 -0.0762857 16.8501 0.85875C18.2653 1.38865 19.562 2.19278 20.6657 3.225C20.2907 3.62625 19.8951 4.00125 19.5126 4.39125C18.7851 5.1175 18.0582 5.84125 17.332 6.5625C16.608 5.87002 15.7322 5.35636 14.7745 5.0625C13.5489 4.69245 12.2451 4.66711 11.0061 4.98927C9.76712 5.31142 8.64079 5.96862 7.7507 6.88875C6.97377 7.67913 6.38538 8.63478 6.02945 9.68437L2.14258 6.675C3.53384 3.91605 5.94273 1.80567 8.8607 0.789375Z" fill="#E33629"/>
<path d="M1.1114 9.65625C1.32016 8.62082 1.66701 7.61812 2.14265 6.675L6.02953 9.69188C5.52119 11.1893 5.52119 12.8126 6.02953 14.31C4.73453 15.31 3.4389 16.315 2.14265 17.325C0.952308 14.9556 0.589275 12.2559 1.1114 9.65625Z" fill="#F8BD00"/>
<path d="M12.7381 9.77812H23.8981C24.2797 11.8724 24.1764 14.0262 23.5963 16.0744C23.0623 17.9578 22.0252 19.66 20.5963 20.9981C19.3419 20.0194 18.0819 19.0481 16.8275 18.0694C17.4494 17.6499 17.9802 17.1092 18.3881 16.4796C18.796 15.8501 19.0726 15.1446 19.2013 14.4056H12.7381C12.7363 12.8644 12.7381 11.3212 12.7381 9.77812Z" fill="#587DBD"/>
<path d="M2.14062 17.325C3.43687 16.325 4.7325 15.32 6.0275 14.31C6.52851 15.7804 7.48138 17.0548 8.75 17.9512C9.54116 18.5107 10.4403 18.899 11.39 19.0912C12.3257 19.2653 13.2855 19.2653 14.2213 19.0912C15.1543 18.9335 16.044 18.5823 16.8331 18.06C18.0875 19.0387 19.3475 20.01 20.6019 20.9887C19.2292 22.237 17.5558 23.1073 15.7456 23.5144C13.7476 23.9841 11.6655 23.9616 9.67813 23.4487C8.10632 23.0291 6.63814 22.2892 5.36563 21.2756C4.01886 20.2062 2.91882 18.8586 2.14062 17.325Z" fill="#319F43"/>
</g>
<defs>
<clipPath id="clip0_175_30">
<rect width="24" height="24" fill="white" transform="translate(0.5)"/>
</clipPath>
</defs>
</svg>
