<svg width="32" height="32" viewBox="0 0 32 32" fill="none" xmlns="http://www.w3.org/2000/svg">
<circle cx="16" cy="16" r="16" fill="#581A57"/>
<path fill-rule="evenodd" clip-rule="evenodd" d="M11.0497 7.47931C10.1028 7.47931 9.19467 7.85537 8.52498 8.5248C7.85529 9.19424 7.47888 10.1022 7.47852 11.0491V20.5723C7.47852 21.5195 7.85477 22.4278 8.5245 23.0976C9.19423 23.7673 10.1026 24.1435 11.0497 24.1435H20.5729C21.5198 24.1432 22.4278 23.7668 23.0972 23.0971C23.7667 22.4274 24.1427 21.5192 24.1427 20.5723V11.0491C24.1424 10.1025 23.7662 9.19468 23.0968 8.52529C22.4274 7.8559 21.5196 7.47967 20.5729 7.47931H11.0497ZM21.6001 11.0546C21.6001 11.3274 21.4917 11.589 21.2989 11.7819C21.106 11.9748 20.8443 12.0832 20.5715 12.0832C20.2988 12.0832 20.0371 11.9748 19.8442 11.7819C19.6513 11.589 19.543 11.3274 19.543 11.0546C19.543 10.7818 19.6513 10.5202 19.8442 10.3273C20.0371 10.1344 20.2988 10.0261 20.5715 10.0261C20.8443 10.0261 21.106 10.1344 21.2989 10.3273C21.4917 10.5202 21.6001 10.7818 21.6001 11.0546ZM15.8127 12.9582C15.0561 12.9582 14.3306 13.2587 13.7956 13.7937C13.2607 14.3286 12.9601 15.0542 12.9601 15.8107C12.9601 16.5673 13.2607 17.2928 13.7956 17.8278C14.3306 18.3628 15.0561 18.6633 15.8127 18.6633C16.5692 18.6633 17.2948 18.3628 17.8298 17.8278C18.3647 17.2928 18.6653 16.5673 18.6653 15.8107C18.6653 15.0542 18.3647 14.3286 17.8298 13.7937C17.2948 13.2587 16.5692 12.9582 15.8127 12.9582ZM11.5873 15.8107C11.5873 14.6905 12.0323 13.6161 12.8245 12.8239C13.6167 12.0318 14.691 11.5867 15.8113 11.5867C16.9316 11.5867 18.006 12.0318 18.7981 12.8239C19.5903 13.6161 20.0353 14.6905 20.0353 15.8107C20.0353 16.931 19.5903 18.0054 18.7981 18.7976C18.006 19.5897 16.9316 20.0347 15.8113 20.0347C14.691 20.0347 13.6167 19.5897 12.8245 18.7976C12.0323 18.0054 11.5873 16.931 11.5873 15.8107Z" fill="#E6DDE6"/>
</svg>
