<svg width="32" height="32" viewBox="0 0 32 32" fill="none" xmlns="http://www.w3.org/2000/svg">
<circle cx="16" cy="16" r="16" fill="#581A57"/>
<path d="M16.1952 9.60001C16.6224 9.60241 17.6912 9.61281 18.8272 9.65841L19.2304 9.67601C20.3736 9.72961 21.516 9.82241 22.0832 9.98001C22.8392 10.1928 23.4328 10.812 23.6336 11.5976C23.9536 12.8456 23.9936 15.2792 23.9984 15.8688L23.9992 15.9904V16.1296C23.9936 16.7192 23.9536 19.1536 23.6336 20.4008C23.4304 21.1888 22.836 21.8088 22.0832 22.0184C21.516 22.176 20.3736 22.2688 19.2304 22.3224L18.8272 22.3408C17.6912 22.3856 16.6224 22.3968 16.1952 22.3984L16.0072 22.3992H15.8032C14.8992 22.3936 11.1184 22.3528 9.9152 22.0184C9.16 21.8056 8.5656 21.1864 8.3648 20.4008C8.0448 19.1528 8.0048 16.7192 8 16.1296V15.8688C8.0048 15.2792 8.0448 12.8448 8.3648 11.5976C8.568 10.8096 9.1624 10.1896 9.916 9.98081C11.1184 9.64561 14.9 9.60481 15.804 9.60001H16.1952ZM14.3992 13.2V18.8L19.1992 16L14.3992 13.2Z" fill="#E6DDE6"/>
</svg>
