<svg width="20" height="15" viewBox="0 0 20 15" fill="none" xmlns="http://www.w3.org/2000/svg">
<path d="M18.5993 0.692507L7.08343 12.2075C7.00601 12.2852 6.914 12.3469 6.81268 12.389C6.71136 12.4311 6.60273 12.4527 6.49302 12.4527C6.38331 12.4527 6.27467 12.4311 6.17336 12.389C6.07204 12.3469 5.98003 12.2852 5.9026 12.2075L1.44927 7.75001C1.37184 7.67228 1.27983 7.6106 1.17851 7.56851C1.07719 7.52643 0.968563 7.50477 0.858851 7.50477C0.74914 7.50477 0.640508 7.52643 0.539189 7.56851C0.43787 7.6106 0.345859 7.67228 0.268434 7.75001C0.190704 7.82743 0.129027 7.91944 0.0869419 8.02076C0.0448572 8.12208 0.0231934 8.23071 0.0231934 8.34042C0.0231934 8.45013 0.0448572 8.55877 0.0869419 8.66008C0.129027 8.7614 0.190704 8.85342 0.268434 8.93084L4.72343 13.385C5.19339 13.8541 5.83027 14.1175 6.49427 14.1175C7.15827 14.1175 7.79515 13.8541 8.2651 13.385L19.7801 1.87251C19.8577 1.7951 19.9193 1.70314 19.9613 1.6019C20.0033 1.50065 20.0249 1.39212 20.0249 1.28251C20.0249 1.17289 20.0033 1.06436 19.9613 0.963117C19.9193 0.861875 19.8577 0.769916 19.7801 0.692507C19.7027 0.614776 19.6107 0.553099 19.5093 0.511014C19.408 0.46893 19.2994 0.447266 19.1897 0.447266C19.08 0.447266 18.9713 0.46893 18.87 0.511014C18.7687 0.553099 18.6767 0.614776 18.5993 0.692507Z" fill="#581A57"/>
</svg>
