<svg width="25" height="24" viewBox="0 0 25 24" fill="none" xmlns="http://www.w3.org/2000/svg">
<path d="M17.5 17H17.51M16.1 14H18.5C19.4319 14 19.8978 14 20.2654 14.1522C20.7554 14.3552 21.1448 14.7446 21.3478 15.2346C21.5 15.6022 21.5 16.0681 21.5 17C21.5 17.9319 21.5 18.3978 21.3478 18.7654C21.1448 19.2554 20.7554 19.6448 20.2654 19.8478C19.8978 20 19.4319 20 18.5 20H6.5C5.56812 20 5.10218 20 4.73463 19.8478C4.24458 19.6448 3.85523 19.2554 3.65224 18.7654C3.5 18.3978 3.5 17.9319 3.5 17C3.5 16.0681 3.5 15.6022 3.65224 15.2346C3.85523 14.7446 4.24458 14.3552 4.73463 14.1522C5.10218 14 5.56812 14 6.5 14H8.9M12.5 15V4M12.5 4L15.5 7M12.5 4L9.5 7" stroke="#581A57" stroke-width="2" stroke-linecap="round" stroke-linejoin="round"/>
</svg>
