<svg width="25" height="24" viewBox="0 0 25 24" fill="none" xmlns="http://www.w3.org/2000/svg">
<path d="M10.5 16V14.0003M10.5 14.0003V12M10.5 14.0003L12.5 14.0005M10.5 14.0003L8.5 14M21.5 12V11.2C21.5 10.0799 21.5 9.51984 21.282 9.09202C21.0903 8.71569 20.7843 8.40973 20.408 8.21799C19.9802 8 19.4201 8 18.3 8H3.5M21.5 12V16M21.5 12H19.5C18.3954 12 17.5 12.8954 17.5 14C17.5 15.1046 18.3954 16 19.5 16H21.5M21.5 16V16.8C21.5 17.9201 21.5 18.4802 21.282 18.908C21.0903 19.2843 20.7843 19.5903 20.408 19.782C19.9802 20 19.4201 20 18.3 20H6.7C5.5799 20 5.01984 20 4.59202 19.782C4.21569 19.5903 3.90973 19.2843 3.71799 18.908C3.5 18.4802 3.5 17.9201 3.5 16.8V8M18.5 8V7.2C18.5 6.0799 18.5 5.51984 18.282 5.09202C18.0903 4.71569 17.7843 4.40973 17.408 4.21799C16.9802 4 16.4201 4 15.3 4H6.7C5.57989 4 5.01984 4 4.59202 4.21799C4.21569 4.40973 3.90973 4.71569 3.71799 5.09202C3.5 5.51984 3.5 6.0799 3.5 7.2V8" stroke="white" stroke-width="2" stroke-linecap="round" stroke-linejoin="round"/>
</svg>
